# xmcd
#
# Track frame offsets:
#	150
#	15422
#	31972
#	45637
#	65430
#	84027
#	100962
#	122520
#	139465
#	154792
#	173605
#	195880
#	225057
#	242750
#
# Disc length: 3453 seconds
#
# Revision: 1
# Processed by: cddbd v1.5.1PL0 Copyright (c) Steve Scherf et al.
# Submitted via: EasyCDDAExtractor 6.0.0.1
#
DISCID=9a0d7b0e
DTITLE=Rattlesnakes - Rattlesnakea
DYEAR=1998
DGENRE=Country
TTITLE0=Ashes of Love
TTITLE1=Garden Party
TTITLE2=Give Back My Heart
TTITLE3=Peacefull Easy Feeling
TTITLE4=Walk Through The Bottomland
TTITLE5=Crying In The Rain
TTITLE6=Butterfly Kisses
TTITLE7=Forever And Ever
TTITLE8=The Girl From Yesterday
TTITLE9=Jenny Dreamed Of Trains
TTITLE10=City of New Orleans
TTITLE11=Lying Eyes
TTITLE12=Still Believe In You
TTITLE13=Still Can't Say Goodbye
EXTD=
EXTT0=
EXTT1=
EXTT2=
EXTT3=
EXTT4=
EXTT5=
EXTT6=
EXTT7=
EXTT8=
EXTT9=
EXTT10=
EXTT11=
EXTT12=
EXTT13=
PLAYORDER=
